<?xml version="1.0" encoding="UTF-8"?>
<svg id="Laag_1" data-name="Laag 1" xmlns="http://www.w3.org/2000/svg" viewBox="0 0 285.13 350.39">
  <defs>
    <style>
      .cls-1 {
        stroke-width: 0px;
      }
    </style>
  </defs>
  <path class="cls-1" d="m135.79,0c4.11,0,8.21,0,12.32,0,1.79.27,3.58.51,5.36.8,23.77,3.84,42.22,16.4,56.63,35.15,17.32,22.54,25.51,48.46,26.14,76.63.66,29.3-.02,58.59-3.32,87.77-.14,1.27.6,3.16,1.58,3.95,15.19,12.32,25.4,28.16,32.79,46,7.67,18.51,12.16,37.91,15.63,57.56,1,5.7,2.42,11.52,2.18,17.22-.6,14.91-12.21,25.22-27.74,25.24-76.51.06-153.03.08-229.54.06-18.16,0-30.38-14.25-27.36-32.1,3.42-20.21,7.32-40.33,14.25-59.72,7.56-21.16,18.33-40.17,36.24-54.47.91-.72,1.49-2.47,1.41-3.69-.27-4.43-1.17-8.83-1.33-13.26-.82-23.01-1.95-46.02-2.1-69.04-.19-30.36,8.01-58.28,26.74-82.63,10.72-13.93,23.93-24.74,40.67-30.58,6.29-2.19,12.95-3.3,19.45-4.9Zm-56.93,102.47c.17,10.44,2.41,19.5,5.75,28.25,6.68,17.48,16.13,33.06,32.74,42.87,14.26,8.42,29.36,10.28,44.21,1.9,23.74-13.41,37.81-34.2,44.15-60.5.62-2.59.06-4.5-1.37-6.63-10.79-16.01-19.81-32.97-26.58-51.07-.73-1.96-1.82-2.45-3.57-2.17-9.64,1.56-19.5,2.33-28.87,4.88-23.09,6.3-43.23,18.36-61.72,33.4-3.43,2.79-5.54,5.56-4.73,9.07Zm113.06,130.65c-8.57-13.56-17.01-26.93-25.58-40.5-15.88,7.36-31.65,7.25-47.53.09-8.59,13.54-17.04,26.86-25.53,40.25.6.41.95.71,1.35.91,15.31,7.81,30.6,15.66,45.98,23.33,1.22.61,3.33.38,4.63-.26,9.29-4.57,18.49-9.35,27.7-14.07,6.27-3.21,12.53-6.44,18.97-9.75Z"/>
</svg>