<?xml version="1.0" encoding="UTF-8"?>
<svg id="Laag_1" data-name="Laag 1" xmlns="http://www.w3.org/2000/svg" viewBox="0 0 535.54 412.38">
  <defs>
    <style>
      .cls-1 {
        fill: #010101;
        stroke-width: 0px;
      }
    </style>
  </defs>
  <path class="cls-1" d="m79.98,412.33H30.14c-1.28,0-2.57,0-3.85-.04-5.57-.22-8.29-2.87-8.44-8.51-.21-7.53-.29-15.09-.3-22.62-.1-24.75-.11-49.5-.25-74.24,0-1.38-.77-2.74-1.13-4.12-.17-.65-.3-1.33-.3-1.98-.04-36.14-.06-72.28-.02-108.43,0-.84.79-1.71,1.24-2.57.25-.46.69-.81.89-1.28,1.56-3.7,4.8-4.64,8.29-4.8,4.23-.19,8.46-.04,12.69-.06,30.28-.14,60.56-.29,90.83-.4,1.64,0,3.37,0,4.91.5,4.71,1.55,6.26,3.76,6.33,8.72.07,6.04,0,12.06.04,18.1,0,3.93.79,4.68,4.59,5.28,2.83.46,5.63,1.09,8.39,1.85,8.14,2.25,15.95,1.41,23.12-2.9,6.04-3.65,11-8.67,15.69-13.92,8.82-9.92,17.98-19.58,28.3-27.97,5.17-4.21,10.63-8.18,16.31-11.66,5.35-3.29,10.95-6.41,16.83-8.51,5.83-2.1,12.12-3.19,18.3-4.08,7.01-1,12.85-4.16,18.26-8.36,5.35-4.17,9.37-9.63,11.51-15.93,2.02-5.87,3.1-12.12,4.01-18.31,1.6-11.04,2.47-22.21,4.21-33.21,1.09-6.87,2.57-13.84,6.5-19.82,1.76-2.68,3.57-5.46,6.98-6.44,1.64-.47,2.43-1.71,2.38-3.44-.04-.98-.04-1.98-.25-2.93-1.23-5.53-.69-11.08.89-16.35,1.56-5.2,4.49-9.85,8.51-13.65,4.53-4.28,9.74-7.31,15.89-8.58.73-.15,1.34-.98,2.1-1.15,1.36-.3,2.85-.73,4.13-.41,1.81.43,3.4,1.84,5.21,2.21,6.58,1.41,11.93,5.14,16.82,9.3,4.38,3.73,8.08,8.29,12.16,12.41,2.28,2.28,4.7,4.44,7.1,6.61,3.54,3.19,6.7,6.65,9.16,10.82,3.87,6.61,8,13.09,12.02,19.6,2.74,4.42,5.47,8.82,8.25,13.21,2.85,4.52,5.78,8.98,8.58,13.52,2.58,4.16,5.07,8.36,7.6,12.55,3.14,5.24,6.29,10.45,9.33,15.73,2.82,4.89,5.5,9.85,8.21,14.8,2.83,5.14,5.68,10.25,8.47,15.42,1.48,2.72,2.93,5.43,4.21,8.24,2.78,6,5.47,12.05,8.1,18.1,1.81,4.21,3.62,8.44,5.11,12.77,1,2.9.77,6.38,2.27,8.93,2.51,4.37,1.55,8.86,1.6,13.31,0,1.56-1.17,3.1-1.49,4.7-.58,2.87-.87,5.82-1.4,8.71-.53,2.89-1.09,5.78-1.85,8.61-1.67,6.33-3.4,12.65-5.24,18.92-1.2,4.12-2.54,8.19-4.04,12.22-3.19,8.61-6.38,17.19-9.84,25.72-2.64,6.54-5.72,12.91-8.55,19.37-1.56,3.57-3.01,7.21-4.59,10.78-1.2,2.75-2.46,5.5-3.76,8.19-1.63,3.3-3.34,6.58-4.99,9.87-.43.87-.76,1.81-1.04,2.74-.98,3.4-1.98,6.77-2.87,10.2-1.4,5.38-4.02,10.16-6.66,14.99-4.21,7.68-9.52,14.47-15.84,20.47-8.24,7.8-17.77,13.6-29.09,14.84-16.18,1.76-32.42,1.55-48.42-2.1-12.7-2.89-25.64-3.66-38.61-4.24-16.28-.76-32.55-2-48.82-2.98-9.58-.58-19.14-.97-28.72-1.6-17.54-1.15-35.1-2.39-52.64-3.65-8.14-.57-16.25-1.23-24.39-1.85-.91-.07-1.81-.07-2.72-.07-4.42,0-5.06.72-5,5.15.07,5.36,0,10.72.1,16.07.1,5.06-2.64,9.48-9.3,9.4-17.44-.21-34.88-.07-52.34-.07v.32l.14.04-.02-.05Zm352.65-158.86c-.51-16.02-.87-32.08-1.63-48.12-.33-7.37-1.48-14.71-2.31-22.05-.55-4.8-1-9.61-1.91-14.33-1.6-8.36-3.5-16.67-5.32-24.97-1.41-6.4-2.93-12.78-4.45-19.14-.83-3.44-1.76-6.85-2.68-10.27-1.28-4.71-2.61-9.44-3.95-14.14-.94-3.32-1.92-6.65-2.96-9.95-1.36-4.3-2.75-8.58-4.19-12.88-1.81-5.42-3.61-10.84-5.57-16.21-1.67-4.64-2.72-9.66-6.29-13.39-2.17-2.25-4.74-4.12-7.21-6.08-2.7-2.15-6-2.68-8.97-1.36-3,1.34-3.77,4.59-3.77,7.72,0,4.23.04,8.46.47,12.65,1.92,18.22,3.88,36.44,6.04,54.63,1.8,15.12,4.16,30.18,5.68,45.33,1.15,11.25,1.84,22.58,1.87,33.87.04,7.48-1.04,15.05-2.34,22.44-1.48,8.29-3.76,16.43-5.71,24.64-1.44,6.08-3.97,11.71-7.8,16.64-6.72,8.65-16.21,12.77-26.59,14.43-13.24,2.13-26.35,1.44-38.71-4.68-1.56-.77-3.14-.65-4.13,1.08-2.61,4.49-5.1,9.04-7.78,13.49-2.13,3.54-4.27,7.12-6.81,10.36-2.85,3.65-6.51,4.19-10.02,2.1-3.91-2.32-5.97-6.69-4.55-10.09.97-2.28,2.21-4.45,3.45-6.59,2.82-4.89,5.68-9.76,8.57-14.61,2.79-4.71,5.71-9.38,8.46-14.12,2.61-4.49,5.46-8.87,7.52-13.61,3.11-7.2,7.41-13.63,11.97-19.87,5.28-7.21,11.15-14.03,16.52-21.2,6.87-9.18,13.05-18.75,17.08-29.62,2.67-7.16,5.06-14.28,6.23-21.85,1.53-9.87,2.82-19.75,1.24-29.71-1.6-10.2-2.2-20.54-5.07-30.53-1.81-6.26-4.02-12.29-7.75-17.67-.69-1.02-1.81-1.85-2.89-2.47-2.39-1.38-4.85-.51-5.63,2.13-1.3,4.4-2.72,8.83-3.37,13.35-1.44,9.91-2.47,19.87-3.61,29.85-1,8.8-2.54,17.52-6.74,25.39-2.57,4.81-5.57,9.48-8.98,13.71-3.93,4.89-8.98,8.61-14.59,11.61-5.47,2.94-11.04,5.21-17.23,6.33-7.01,1.27-14.25,1.89-20.62,5.61-5.06,2.94-10.41,5.47-15.16,8.83-9.52,6.72-17.94,14.73-25.92,23.2-9.44,10.01-17.94,21.16-30.64,27.45-4.4,2.17-9.16,4.09-13.97,4.88-8.03,1.3-16.09.57-23.94-2.02-3.51-1.17-4.85,0-4.85,3.59.11,40.21.25,80.43.37,120.63,0,4.88,1.02,5.87,6,6.14,8.75.46,17.5.81,26.24,1.41,22.13,1.56,44.25,3.32,66.4,4.85,9.73.68,19.44.97,29.17,1.53,17.41,1,34.81,2.06,52.22,3.1,3.54.21,7.12.22,10.59.79,4.68.76,9.29,1.89,13.92,2.94,12.12,2.79,24.41,2.68,36.73,2.47,5.64-.1,11-1.4,15.85-4.01,6.59-3.54,11.95-8.72,16.28-14.8,2.94-4.16,5.74-8.51,7.95-13.09,2.1-4.28,4.17-8.87,4.84-13.53,1.59-11.35,2.72-22.79,3.34-34.22.87-15.97,1.12-31.96,1.63-48.01l-.02.04h.01Zm-307.23,44.1h-.46v-36.21c-.02-18.93-.06-37.87-.14-56.81,0-4.04-1.17-5.1-5.15-5.07-26.44.07-52.86.14-79.3.19-1.28,0-2.57.07-3.83.19-2,.19-3.23,1.34-3.32,3.36-.11,2.63-.06,5.27-.06,7.91.17,54.16.33,108.35.51,162.52,0,5.89-.02,11.76,0,17.65,0,3.21,1.28,4.55,4.45,4.76.61.04,1.2.04,1.81.04,22.43-.04,44.86-.1,67.29-.14,4.3,0,8.61,0,12.89-.04,4.28-.02,5.64-1.45,5.57-5.76-.1-4.76-.26-9.49-.26-14.25-.02-26.11,0-52.22,0-78.32l-.02-.02h.02Zm324.25-18.75c.3.06.58.14.89.19.4-.51.79-1.02,1.2-1.51,3.7-4.42,4.7-10.05,6.76-15.18,1.74-4.32,3.01-8.82,4.53-13.21,1.66-4.84,3.72-9.58,4.95-14.5,1.92-7.74,3.29-15.59,4.91-23.41,2.28-10.92-1.28-20.87-5.21-30.72-1.53-3.83-3.5-7.49-5.31-11.21-2.68-5.55-5.25-11.14-8.14-16.6-3.76-7.12-7.75-14.11-11.69-21.13-1.33-2.36-2.68-4.7-4.12-6.98-.58-.93-1.41-1.71-2.13-2.57-.33,1.2-.69,2.39-1.02,3.61-.06.19.07.43.14.66,1.24,4.81,2.7,9.58,3.7,14.44,2.21,10.84,4.45,21.7,6.19,32.6,3.68,23,4.19,46.25,4.78,69.46.26,10.86-.29,21.71-.46,32.57v3.45l.02.04v.02Zm-81.7-91.7h-.26c0-2.34.06-4.68,0-7.01-.15-4.74-.3-9.49-.61-14.23-.06-.83-.84-1.59-1.33-2.39-.66.65-1.56,1.15-1.91,1.92-2.34,5.28-4.48,10.68-6.89,15.95-1.38,3-3,5.91-4.74,8.71-2.67,4.27-5.38,8.51-8.32,12.62-3.98,5.57-7.91,11.21-12.38,16.39-6.89,7.96-12.69,16.61-17.44,25.97-.73,1.44-1.19,3.19-1.15,4.78.02,1.15.79,2.79,1.71,3.3,2.15,1.19,4.55,2.23,6.95,2.58,8.89,1.36,17.67,1.24,26.23-2.38,4.24-1.81,7.28-4.57,9.69-8.39,2.49-3.95,3.18-8.44,4.23-12.8,1.92-7.89,3.62-15.84,5.4-23.74.1-.43.1-.91.11-1.36.25-6.62.47-13.25.72-19.87v-.02h0Zm-19.22-136.5c1.13,1.15,1.87,3.47,4.02,2.53,1.98-.87,1.13-3.04,1.24-4.7.66-8.71,2.39-16.9,10.52-22.05,1.38-.87,1.64-2.03.55-3.44-2.85-3.62-10.36-5.07-14.08-2.39"/>
</svg>