<?xml version="1.0" encoding="UTF-8"?>
<svg id="Laag_1" data-name="Laag 1" xmlns="http://www.w3.org/2000/svg" viewBox="0 0 535.54 368.4">
  <defs>
    <style>
      .cls-1 {
        stroke-width: 0px;
      }
    </style>
  </defs>
  <path class="cls-1" d="m413.04,257.52c-2.65.86-4.88,2.06-7.19,2.24-5.49.43-11.03.64-16.52.43-3.29-.13-6.59-1.07-9.81-1.92-2.08-.55-2.53.14-2.54,2.04-.07,10.48-.22,20.96-.34,31.44-.17,14.2-.31,28.41-.54,42.61-.03,1.77.52,2.93,1.89,4.07,5.76,4.82,10.32,10.48,11.87,18.1.49,2.43.36,2.72-2.03,2.77-12.6.3-25.21.56-37.81.9-1.91.05-2.49-.61-2.44-2.51.19-7.59.47-15.14,2.49-22.56.67-2.48.6-5.34.16-7.91-2.47-14.51-5.08-28.99-7.8-43.45-1.37-7.31-3.09-14.55-4.59-21.83-.75-3.64-.68-3.65-4.37-3.61-2.81.03-5.63.21-8.43.05-2.11-.12-3.3.74-4.44,2.42-15.76,23.34-31.58,46.64-47.38,69.95-2.6,3.83-5.12,7.72-7.82,11.48-.98,1.37-.6,2.01.53,2.96,5.5,4.65,11,9.31,16.34,14.14,2.52,2.28,4.48,5.09,5.65,8.76-1.02.11-1.81.27-2.59.27-12.08.02-24.15-.03-36.23.04-2.02.01-2.96-.62-3.43-2.67-.89-3.91-2.05-7.76-3.19-11.61-1.51-5.09-1.02-9.79,1.1-14.78,10.86-25.53,21.42-51.2,32.11-76.81,1.37-3.28,1.28-3.46-2.17-3.99-16.54-2.51-32.18-7.64-46.22-16.88-4.39-2.89-8.08-6.83-12.09-10.31-.65-.57-1.27-1.18-2.26-2.1-.5,2.91-.86,5.34-1.34,7.75-1.84,9.2-5.11,17.92-9.16,26.36-5.64,11.76-12.64,22.65-20.77,32.82q-2.38,2.98.24,5.86c9,9.88,18,19.77,27.02,29.62.86.94,1.82,1.86,2.91,2.49,8.93,5.18,15.27,12.63,19.22,22.09,1.33,3.2,2.15,6.62,3.22,9.93.52,1.62-.06,2.2-1.74,2.15-11.39-.34-22.78-.65-34.17-.92-1.6-.04-2.24-.88-2.71-2.24-1.82-5.33-.84-10.34,1.65-15.17,1.66-3.23,1.8-3.53-1.56-5.2-7.67-3.81-15.48-7.33-23.2-11.04-12.97-6.24-25.92-12.53-38.86-18.85-1.35-.66-2.6-1.58-3.76-2.54-2.98-2.46-3.09-5.65-.06-8.11,1.92-1.56,4.21-2.67,6.33-3.99.62-.39,1.24-.79,2.29-1.46-10.72-6.41-18.5-15.19-24.84-25.6-2.07,2.44-3.85,4.78-5.88,6.88-9.71,10.05-21.44,17.35-33.42,24.27-2.04,1.18-2.49,2.33-1.94,4.54,1.78,7.14,3.3,14.34,5.06,21.49.3,1.23,1.16,2.45,2.08,3.37,4.94,4.93,8.8,10.44,10.01,17.49.46,2.69.3,2.92-2.38,2.95-12.61.11-25.22.17-37.82.36-2,.03-2.44-.69-2.41-2.5.11-6.47.56-12.81,3.03-18.97.81-2.02.45-4.89-.27-7.07-2.6-7.84-5.52-15.57-8.42-23.3-3.75-10-8.18-19.77-10.32-30.32-.2-.96-.41-1.94-.47-2.91-.29-4.54,2.23-7.8,6.8-7.99,4.06-.17,8.16.33,12.24.58,1.97.12,3.92.48,5.89.51,3.69.05,5.15-1.32,5.17-5.06.03-5.01-.11-10.02-.23-15.03-.34-13.89-.98-27.77-.96-41.66.01-7.94.92-15.91,3.99-23.43.18-.45-.32-1.64-.78-1.84-21.9-9.35-38.56-25.25-53.64-43.05-2.91-3.43-5.04-7.56-7.29-11.5-2.48-4.35-1.95-8.86-.15-13.35,2.81-7.01,7.3-12.99,12.04-18.69,9.89-11.89,20.91-22.62,33.83-31.29,5.23-3.51,10.82-5.82,17.21-5.66,9.79.24,19.58.58,29.37.85,5.54.15,11.08.25,16.62.36,10.02.19,16.32-8.69,18.02-16.14.5-2.19.12-4.31-1.68-5.84-2.7-2.29-5.48-4.48-8.26-6.68-1.45-1.15-2.74-.88-4.32.14-3.17,2.05-6.43,4.03-9.88,5.55-5.22,2.3-10.42,1.04-15.47-.96-7.06-2.79-13.6-6.38-18.61-12.27-.3-.35-.59-.7-.85-1.07-2.16-3.05-1.88-3.05,1.51-4.2,4.86-1.65,9.52-3.88,14.22-5.96,2.84-1.25,5.59-2.7,8.4-4.03,7.27-3.44,13.62-1.78,19.12,3.68,7.09,7.05,14.03,14.25,21.1,21.31,4.67,4.66,5.94,9.83,2.99,15.9-3.34,6.86-7.45,13.18-12.45,18.96-4.7,5.44-10.92,6.88-17.59,7.05-11.46.28-22.94.23-34.4.55-4.15.11-8.42.38-12.39,1.47-7.24,1.99-12.66,7.06-17.78,12.27-5.34,5.43-10.04,11.43-13.52,18.23-1.67,3.26-2.73,6.85-3.89,10.35-.99,2.97.1,5.61,2.13,7.74,2.61,2.74,5.22,5.54,8.21,7.82,7.35,5.6,15.46,9.77,24.36,12.5,5.2,1.59,9.69.41,14.45-1.71,30.47-13.57,60.93-27.15,91.57-40.31,17.96-7.72,36.13-14.99,54.43-21.88,17.73-6.67,35.66-12.84,53.66-18.75,12.69-4.16,25.67-7.4,39.05-8.58,6.85-.6,13.43.91,19.8,3.37,14.23,5.5,26.2,14.48,37.78,24.16,19.7,16.46,37.19,35.13,54.38,54.1,6.58,7.26,13.23,14.45,19.82,21.7,6.19,6.81,14.02,11.36,21.96,15.66,9.78,5.29,15.2,13.62,17.95,24.05.27,1.03.61,2.04.92,3.05.49,1.59-.01,2.16-1.74,2.13-4.92-.08-9.84-.09-14.76.08-4.63.16-7.85,2.72-9.67,6.84-3.65,8.24-3.83,16.79-1.51,25.39.68,2.53,1.64,5.07,2.97,7.31,3.29,5.53,8.78,5.61,14.3,5.09,4-.38,7.99-.96,11.97-1.53,1.84-.26,2.48.21,2.12,2.19-.74,4.03-1.16,8.11-1.91,12.14-1.1,5.86-4.52,10.57-8.06,15.13-12.51,16.1-26.38,30.98-40.99,45.18-2.01,1.95-4.23,3.7-6.41,5.47-2.64,2.14-5.61,3.21-9.08,2.58-6.24-1.13-11.61-3.9-13.97-9.95-1.33-3.4-1.55-7.48-1.3-11.19.69-10.29,1.76-20.57,2.94-30.82.43-3.74,1.63-7.4,2.47-11.1.11-.5.18-1.01.34-1.89Z"/>
  <path class="cls-1" d="m534.91,254.82c-1.18-.56-2.48-.94-3.51-1.7-4.95-3.63-9.81-7.41-14.75-11.06-4.46-3.29-9.05-6.31-14.52-7.81-6.18-1.7-12.35-.9-18.53-.26-4.22.43-8.43,1-12.65,1.41-2.74.26-4.65-.97-5.75-3.52-3.65-8.46-4.12-16.98-.56-25.58.96-2.32,2.77-3.35,5.28-3.68,14.69-1.91,27.94,1.98,40.75,9,11.03,6.04,17.67,15.18,21.47,26.76,1.25,3.81,2.2,7.71,3.13,11.61.33,1.36.2,2.82.28,4.24-.21.19-.42.39-.64.58Z"/>
</svg>